<mxfile host="www.draw.io" modified="2023-04-02T09:14:45.213Z" agent="Mozilla/5.0 (Windows NT 10.0; Win64; x64) AppleWebKit/537.36 (KHTML, like Gecko) Chrome/111.0.0.0 Safari/537.36" etag="6g_t8z-0-kfQUcV1mU3Y" version="21.1.2" type="device">
  <diagram name="第 1 页" id="yHg0AhVDzla-XiINW9SJ">
    <mxGraphModel dx="1119" dy="534" grid="1" gridSize="10" guides="1" tooltips="1" connect="1" arrows="1" fold="1" page="1" pageScale="1" pageWidth="827" pageHeight="1169" math="0" shadow="0">
      <root>
        <mxCell id="0" />
        <mxCell id="1" parent="0" />
        <mxCell id="bSU5-OepussvrXAUUQVM-22" value="" style="rounded=0;whiteSpace=wrap;html=1;dashed=1;dashPattern=12 12;" vertex="1" parent="1">
          <mxGeometry x="200" y="540" width="650" height="420" as="geometry" />
        </mxCell>
        <mxCell id="bSU5-OepussvrXAUUQVM-9" style="edgeStyle=orthogonalEdgeStyle;rounded=0;orthogonalLoop=1;jettySize=auto;html=1;exitX=0.5;exitY=1;exitDx=0;exitDy=0;entryX=0.5;entryY=0;entryDx=0;entryDy=0;" edge="1" parent="1" source="bSU5-OepussvrXAUUQVM-1" target="bSU5-OepussvrXAUUQVM-2">
          <mxGeometry relative="1" as="geometry" />
        </mxCell>
        <mxCell id="bSU5-OepussvrXAUUQVM-1" value="/" style="rounded=0;whiteSpace=wrap;html=1;" vertex="1" parent="1">
          <mxGeometry x="470" y="320" width="120" height="60" as="geometry" />
        </mxCell>
        <mxCell id="bSU5-OepussvrXAUUQVM-10" style="edgeStyle=orthogonalEdgeStyle;rounded=0;orthogonalLoop=1;jettySize=auto;html=1;exitX=1;exitY=0.5;exitDx=0;exitDy=0;entryX=0;entryY=0.5;entryDx=0;entryDy=0;startArrow=classic;startFill=1;" edge="1" parent="1" source="bSU5-OepussvrXAUUQVM-2" target="bSU5-OepussvrXAUUQVM-3">
          <mxGeometry relative="1" as="geometry" />
        </mxCell>
        <mxCell id="bSU5-OepussvrXAUUQVM-12" style="edgeStyle=orthogonalEdgeStyle;rounded=0;orthogonalLoop=1;jettySize=auto;html=1;exitX=0.5;exitY=1;exitDx=0;exitDy=0;entryX=0.5;entryY=0;entryDx=0;entryDy=0;" edge="1" parent="1" source="bSU5-OepussvrXAUUQVM-2" target="bSU5-OepussvrXAUUQVM-4">
          <mxGeometry relative="1" as="geometry" />
        </mxCell>
        <mxCell id="bSU5-OepussvrXAUUQVM-2" value="/login" style="rounded=0;whiteSpace=wrap;html=1;" vertex="1" parent="1">
          <mxGeometry x="350" y="420" width="120" height="60" as="geometry" />
        </mxCell>
        <mxCell id="bSU5-OepussvrXAUUQVM-11" style="edgeStyle=orthogonalEdgeStyle;rounded=0;orthogonalLoop=1;jettySize=auto;html=1;exitX=0.5;exitY=1;exitDx=0;exitDy=0;entryX=0.5;entryY=0;entryDx=0;entryDy=0;" edge="1" parent="1" source="bSU5-OepussvrXAUUQVM-3" target="bSU5-OepussvrXAUUQVM-4">
          <mxGeometry relative="1" as="geometry" />
        </mxCell>
        <mxCell id="bSU5-OepussvrXAUUQVM-3" value="/SignUp" style="rounded=0;whiteSpace=wrap;html=1;" vertex="1" parent="1">
          <mxGeometry x="590" y="420" width="120" height="60" as="geometry" />
        </mxCell>
        <mxCell id="bSU5-OepussvrXAUUQVM-13" style="edgeStyle=orthogonalEdgeStyle;rounded=0;orthogonalLoop=1;jettySize=auto;html=1;exitX=0.5;exitY=1;exitDx=0;exitDy=0;entryX=0.5;entryY=0;entryDx=0;entryDy=0;" edge="1" parent="1" source="bSU5-OepussvrXAUUQVM-4" target="bSU5-OepussvrXAUUQVM-5">
          <mxGeometry relative="1" as="geometry" />
        </mxCell>
        <mxCell id="bSU5-OepussvrXAUUQVM-14" style="edgeStyle=orthogonalEdgeStyle;rounded=0;orthogonalLoop=1;jettySize=auto;html=1;exitX=0.5;exitY=1;exitDx=0;exitDy=0;" edge="1" parent="1" source="bSU5-OepussvrXAUUQVM-4" target="bSU5-OepussvrXAUUQVM-6">
          <mxGeometry relative="1" as="geometry" />
        </mxCell>
        <mxCell id="bSU5-OepussvrXAUUQVM-15" style="edgeStyle=orthogonalEdgeStyle;rounded=0;orthogonalLoop=1;jettySize=auto;html=1;exitX=0.5;exitY=1;exitDx=0;exitDy=0;" edge="1" parent="1" source="bSU5-OepussvrXAUUQVM-4" target="bSU5-OepussvrXAUUQVM-8">
          <mxGeometry relative="1" as="geometry" />
        </mxCell>
        <mxCell id="bSU5-OepussvrXAUUQVM-4" value="/Dashboard" style="rounded=0;whiteSpace=wrap;html=1;" vertex="1" parent="1">
          <mxGeometry x="460" y="560" width="120" height="60" as="geometry" />
        </mxCell>
        <mxCell id="bSU5-OepussvrXAUUQVM-19" style="edgeStyle=orthogonalEdgeStyle;rounded=0;orthogonalLoop=1;jettySize=auto;html=1;exitX=0.5;exitY=1;exitDx=0;exitDy=0;entryX=0;entryY=0.5;entryDx=0;entryDy=0;" edge="1" parent="1" source="bSU5-OepussvrXAUUQVM-5" target="bSU5-OepussvrXAUUQVM-7">
          <mxGeometry relative="1" as="geometry" />
        </mxCell>
        <mxCell id="bSU5-OepussvrXAUUQVM-20" value="After setting up the rules" style="edgeLabel;html=1;align=center;verticalAlign=middle;resizable=0;points=[];" vertex="1" connectable="0" parent="bSU5-OepussvrXAUUQVM-19">
          <mxGeometry x="-0.4815" relative="1" as="geometry">
            <mxPoint as="offset" />
          </mxGeometry>
        </mxCell>
        <mxCell id="bSU5-OepussvrXAUUQVM-5" value="/GameInit" style="rounded=0;whiteSpace=wrap;html=1;" vertex="1" parent="1">
          <mxGeometry x="310" y="700" width="120" height="60" as="geometry" />
        </mxCell>
        <mxCell id="bSU5-OepussvrXAUUQVM-16" style="edgeStyle=orthogonalEdgeStyle;rounded=0;orthogonalLoop=1;jettySize=auto;html=1;exitX=0.5;exitY=1;exitDx=0;exitDy=0;" edge="1" parent="1" source="bSU5-OepussvrXAUUQVM-6" target="bSU5-OepussvrXAUUQVM-7">
          <mxGeometry relative="1" as="geometry" />
        </mxCell>
        <mxCell id="bSU5-OepussvrXAUUQVM-21" value="View record" style="edgeLabel;html=1;align=center;verticalAlign=middle;resizable=0;points=[];" vertex="1" connectable="0" parent="bSU5-OepussvrXAUUQVM-16">
          <mxGeometry x="-0.2" relative="1" as="geometry">
            <mxPoint x="55" y="-15" as="offset" />
          </mxGeometry>
        </mxCell>
        <mxCell id="bSU5-OepussvrXAUUQVM-6" value="/History" style="rounded=0;whiteSpace=wrap;html=1;" vertex="1" parent="1">
          <mxGeometry x="460" y="700" width="120" height="60" as="geometry" />
        </mxCell>
        <mxCell id="bSU5-OepussvrXAUUQVM-7" value="/History:id" style="rounded=0;whiteSpace=wrap;html=1;" vertex="1" parent="1">
          <mxGeometry x="540" y="830" width="120" height="60" as="geometry" />
        </mxCell>
        <mxCell id="bSU5-OepussvrXAUUQVM-17" style="edgeStyle=orthogonalEdgeStyle;rounded=0;orthogonalLoop=1;jettySize=auto;html=1;exitX=0.5;exitY=1;exitDx=0;exitDy=0;entryX=0.5;entryY=0;entryDx=0;entryDy=0;" edge="1" parent="1" source="bSU5-OepussvrXAUUQVM-8" target="bSU5-OepussvrXAUUQVM-7">
          <mxGeometry relative="1" as="geometry" />
        </mxCell>
        <mxCell id="bSU5-OepussvrXAUUQVM-8" value="/LeaderBoard" style="rounded=0;whiteSpace=wrap;html=1;" vertex="1" parent="1">
          <mxGeometry x="620" y="700" width="120" height="60" as="geometry" />
        </mxCell>
        <mxCell id="bSU5-OepussvrXAUUQVM-23" value="Login required" style="text;html=1;align=center;verticalAlign=middle;resizable=0;points=[];autosize=1;strokeColor=none;fillColor=none;" vertex="1" parent="1">
          <mxGeometry x="215" y="560" width="100" height="30" as="geometry" />
        </mxCell>
        <mxCell id="bSU5-OepussvrXAUUQVM-27" style="edgeStyle=orthogonalEdgeStyle;rounded=0;orthogonalLoop=1;jettySize=auto;html=1;" edge="1" parent="1" source="bSU5-OepussvrXAUUQVM-24" target="bSU5-OepussvrXAUUQVM-25">
          <mxGeometry relative="1" as="geometry" />
        </mxCell>
        <mxCell id="bSU5-OepussvrXAUUQVM-24" value="Start" style="ellipse;whiteSpace=wrap;html=1;aspect=fixed;" vertex="1" parent="1">
          <mxGeometry x="370" y="1260" width="80" height="80" as="geometry" />
        </mxCell>
        <mxCell id="bSU5-OepussvrXAUUQVM-31" style="edgeStyle=orthogonalEdgeStyle;rounded=0;orthogonalLoop=1;jettySize=auto;html=1;exitX=0.5;exitY=1;exitDx=0;exitDy=0;entryX=0.5;entryY=0;entryDx=0;entryDy=0;" edge="1" parent="1" source="bSU5-OepussvrXAUUQVM-25" target="bSU5-OepussvrXAUUQVM-26">
          <mxGeometry relative="1" as="geometry" />
        </mxCell>
        <mxCell id="bSU5-OepussvrXAUUQVM-25" value="for each close price" style="rounded=1;whiteSpace=wrap;html=1;" vertex="1" parent="1">
          <mxGeometry x="350" y="1390" width="120" height="60" as="geometry" />
        </mxCell>
        <mxCell id="bSU5-OepussvrXAUUQVM-32" style="edgeStyle=orthogonalEdgeStyle;rounded=0;orthogonalLoop=1;jettySize=auto;html=1;exitX=1;exitY=0.5;exitDx=0;exitDy=0;entryX=0;entryY=0.5;entryDx=0;entryDy=0;" edge="1" parent="1" source="bSU5-OepussvrXAUUQVM-26" target="bSU5-OepussvrXAUUQVM-40">
          <mxGeometry relative="1" as="geometry">
            <mxPoint x="550" y="1575" as="targetPoint" />
          </mxGeometry>
        </mxCell>
        <mxCell id="bSU5-OepussvrXAUUQVM-33" value="No" style="edgeLabel;html=1;align=center;verticalAlign=middle;resizable=0;points=[];" vertex="1" connectable="0" parent="bSU5-OepussvrXAUUQVM-32">
          <mxGeometry x="0.2747" relative="1" as="geometry">
            <mxPoint x="-12" y="-15" as="offset" />
          </mxGeometry>
        </mxCell>
        <mxCell id="bSU5-OepussvrXAUUQVM-34" style="edgeStyle=orthogonalEdgeStyle;rounded=0;orthogonalLoop=1;jettySize=auto;html=1;exitX=0.5;exitY=1;exitDx=0;exitDy=0;entryX=0.5;entryY=0;entryDx=0;entryDy=0;" edge="1" parent="1" source="bSU5-OepussvrXAUUQVM-26" target="bSU5-OepussvrXAUUQVM-37">
          <mxGeometry relative="1" as="geometry">
            <mxPoint x="410" y="1700" as="targetPoint" />
          </mxGeometry>
        </mxCell>
        <mxCell id="bSU5-OepussvrXAUUQVM-38" value="Yes" style="edgeLabel;html=1;align=center;verticalAlign=middle;resizable=0;points=[];" vertex="1" connectable="0" parent="bSU5-OepussvrXAUUQVM-34">
          <mxGeometry x="0.2548" y="2" relative="1" as="geometry">
            <mxPoint x="18" y="-5" as="offset" />
          </mxGeometry>
        </mxCell>
        <mxCell id="bSU5-OepussvrXAUUQVM-26" value="if (day % period == 0)" style="rhombus;whiteSpace=wrap;html=1;" vertex="1" parent="1">
          <mxGeometry x="320.25" y="1520" width="179.5" height="110" as="geometry" />
        </mxCell>
        <mxCell id="bSU5-OepussvrXAUUQVM-39" style="edgeStyle=orthogonalEdgeStyle;rounded=0;orthogonalLoop=1;jettySize=auto;html=1;exitX=1;exitY=0.5;exitDx=0;exitDy=0;entryX=0.5;entryY=1;entryDx=0;entryDy=0;" edge="1" parent="1" source="bSU5-OepussvrXAUUQVM-37" target="bSU5-OepussvrXAUUQVM-40">
          <mxGeometry relative="1" as="geometry">
            <mxPoint x="610" y="1605" as="targetPoint" />
          </mxGeometry>
        </mxCell>
        <mxCell id="bSU5-OepussvrXAUUQVM-37" value="execute &quot;Buy&quot; order" style="rounded=1;whiteSpace=wrap;html=1;" vertex="1" parent="1">
          <mxGeometry x="350" y="1670" width="120" height="60" as="geometry" />
        </mxCell>
        <mxCell id="bSU5-OepussvrXAUUQVM-42" value="" style="edgeStyle=orthogonalEdgeStyle;rounded=0;orthogonalLoop=1;jettySize=auto;html=1;" edge="1" parent="1" source="bSU5-OepussvrXAUUQVM-40" target="bSU5-OepussvrXAUUQVM-41">
          <mxGeometry relative="1" as="geometry" />
        </mxCell>
        <mxCell id="bSU5-OepussvrXAUUQVM-44" value="No" style="edgeLabel;html=1;align=center;verticalAlign=middle;resizable=0;points=[];" vertex="1" connectable="0" parent="bSU5-OepussvrXAUUQVM-42">
          <mxGeometry x="-0.7298" y="-1" relative="1" as="geometry">
            <mxPoint x="18" y="-16" as="offset" />
          </mxGeometry>
        </mxCell>
        <mxCell id="bSU5-OepussvrXAUUQVM-43" style="edgeStyle=orthogonalEdgeStyle;rounded=0;orthogonalLoop=1;jettySize=auto;html=1;entryX=1;entryY=0.5;entryDx=0;entryDy=0;" edge="1" parent="1" source="bSU5-OepussvrXAUUQVM-40" target="bSU5-OepussvrXAUUQVM-25">
          <mxGeometry relative="1" as="geometry">
            <Array as="points">
              <mxPoint x="615" y="1420" />
            </Array>
          </mxGeometry>
        </mxCell>
        <mxCell id="bSU5-OepussvrXAUUQVM-45" value="Yes" style="edgeLabel;html=1;align=center;verticalAlign=middle;resizable=0;points=[];" vertex="1" connectable="0" parent="bSU5-OepussvrXAUUQVM-43">
          <mxGeometry x="-0.641" relative="1" as="geometry">
            <mxPoint x="15" y="22" as="offset" />
          </mxGeometry>
        </mxCell>
        <mxCell id="bSU5-OepussvrXAUUQVM-40" value="Next day exists?" style="rhombus;whiteSpace=wrap;html=1;" vertex="1" parent="1">
          <mxGeometry x="560" y="1535" width="110" height="80" as="geometry" />
        </mxCell>
        <mxCell id="bSU5-OepussvrXAUUQVM-41" value="End" style="ellipse;whiteSpace=wrap;html=1;" vertex="1" parent="1">
          <mxGeometry x="740" y="1535" width="80" height="80" as="geometry" />
        </mxCell>
        <mxCell id="bSU5-OepussvrXAUUQVM-135" style="edgeStyle=orthogonalEdgeStyle;rounded=0;orthogonalLoop=1;jettySize=auto;html=1;exitX=0.5;exitY=1;exitDx=0;exitDy=0;entryX=0.5;entryY=0;entryDx=0;entryDy=0;" edge="1" parent="1" source="bSU5-OepussvrXAUUQVM-101" target="bSU5-OepussvrXAUUQVM-104">
          <mxGeometry relative="1" as="geometry" />
        </mxCell>
        <mxCell id="bSU5-OepussvrXAUUQVM-101" value="For Each Price value" style="rounded=1;whiteSpace=wrap;html=1;fontSize=12;glass=0;strokeWidth=1;shadow=0;" vertex="1" parent="1">
          <mxGeometry x="885" y="2240" width="120" height="40" as="geometry" />
        </mxCell>
        <mxCell id="bSU5-OepussvrXAUUQVM-125" style="edgeStyle=orthogonalEdgeStyle;rounded=0;orthogonalLoop=1;jettySize=auto;html=1;exitX=1;exitY=0.5;exitDx=0;exitDy=0;" edge="1" parent="1" source="bSU5-OepussvrXAUUQVM-104" target="bSU5-OepussvrXAUUQVM-114">
          <mxGeometry relative="1" as="geometry" />
        </mxCell>
        <mxCell id="bSU5-OepussvrXAUUQVM-147" value="Yes" style="edgeLabel;html=1;align=center;verticalAlign=middle;resizable=0;points=[];" vertex="1" connectable="0" parent="bSU5-OepussvrXAUUQVM-125">
          <mxGeometry x="-0.256" y="1" relative="1" as="geometry">
            <mxPoint x="-1" y="-9" as="offset" />
          </mxGeometry>
        </mxCell>
        <mxCell id="bSU5-OepussvrXAUUQVM-126" style="edgeStyle=orthogonalEdgeStyle;rounded=0;orthogonalLoop=1;jettySize=auto;html=1;exitX=0.5;exitY=1;exitDx=0;exitDy=0;" edge="1" parent="1" source="bSU5-OepussvrXAUUQVM-104" target="bSU5-OepussvrXAUUQVM-124">
          <mxGeometry relative="1" as="geometry" />
        </mxCell>
        <mxCell id="bSU5-OepussvrXAUUQVM-151" value="No" style="edgeLabel;html=1;align=center;verticalAlign=middle;resizable=0;points=[];" vertex="1" connectable="0" parent="bSU5-OepussvrXAUUQVM-126">
          <mxGeometry x="-0.792" y="1" relative="1" as="geometry">
            <mxPoint x="14" y="5" as="offset" />
          </mxGeometry>
        </mxCell>
        <mxCell id="bSU5-OepussvrXAUUQVM-104" value="holding assets == 0" style="rhombus;whiteSpace=wrap;html=1;shadow=0;fontFamily=Helvetica;fontSize=12;align=center;strokeWidth=1;spacing=6;spacingTop=-4;" vertex="1" parent="1">
          <mxGeometry x="880" y="2330" width="130" height="80" as="geometry" />
        </mxCell>
        <mxCell id="bSU5-OepussvrXAUUQVM-129" style="edgeStyle=orthogonalEdgeStyle;rounded=0;orthogonalLoop=1;jettySize=auto;html=1;exitX=0.5;exitY=1;exitDx=0;exitDy=0;" edge="1" parent="1" source="bSU5-OepussvrXAUUQVM-108" target="bSU5-OepussvrXAUUQVM-122">
          <mxGeometry relative="1" as="geometry" />
        </mxCell>
        <mxCell id="bSU5-OepussvrXAUUQVM-156" value="No" style="edgeLabel;html=1;align=center;verticalAlign=middle;resizable=0;points=[];" vertex="1" connectable="0" parent="bSU5-OepussvrXAUUQVM-129">
          <mxGeometry x="-0.8082" y="-1" relative="1" as="geometry">
            <mxPoint x="16" y="5" as="offset" />
          </mxGeometry>
        </mxCell>
        <mxCell id="bSU5-OepussvrXAUUQVM-136" style="edgeStyle=orthogonalEdgeStyle;rounded=0;orthogonalLoop=1;jettySize=auto;html=1;exitX=0;exitY=0.5;exitDx=0;exitDy=0;entryX=1;entryY=0.5;entryDx=0;entryDy=0;" edge="1" parent="1" source="bSU5-OepussvrXAUUQVM-108" target="bSU5-OepussvrXAUUQVM-111">
          <mxGeometry relative="1" as="geometry" />
        </mxCell>
        <mxCell id="bSU5-OepussvrXAUUQVM-155" value="Yes" style="edgeLabel;html=1;align=center;verticalAlign=middle;resizable=0;points=[];" vertex="1" connectable="0" parent="bSU5-OepussvrXAUUQVM-136">
          <mxGeometry x="-0.2855" y="-2" relative="1" as="geometry">
            <mxPoint x="10" y="-8" as="offset" />
          </mxGeometry>
        </mxCell>
        <mxCell id="bSU5-OepussvrXAUUQVM-108" value="Profit &amp;gt;= take profit rate" style="rhombus;whiteSpace=wrap;html=1;shadow=0;fontFamily=Helvetica;fontSize=12;align=center;strokeWidth=1;spacing=6;spacingTop=-4;" vertex="1" parent="1">
          <mxGeometry x="862.5" y="2710" width="165" height="80" as="geometry" />
        </mxCell>
        <mxCell id="bSU5-OepussvrXAUUQVM-143" style="edgeStyle=orthogonalEdgeStyle;rounded=0;orthogonalLoop=1;jettySize=auto;html=1;exitX=0;exitY=0.5;exitDx=0;exitDy=0;" edge="1" parent="1" source="bSU5-OepussvrXAUUQVM-111">
          <mxGeometry relative="1" as="geometry">
            <mxPoint x="580" y="2750" as="targetPoint" />
          </mxGeometry>
        </mxCell>
        <mxCell id="bSU5-OepussvrXAUUQVM-111" value="Execute Sell order" style="rounded=1;whiteSpace=wrap;html=1;fontSize=12;glass=0;strokeWidth=1;shadow=0;" vertex="1" parent="1">
          <mxGeometry x="670" y="2730" width="120" height="40" as="geometry" />
        </mxCell>
        <mxCell id="bSU5-OepussvrXAUUQVM-139" style="edgeStyle=orthogonalEdgeStyle;rounded=0;orthogonalLoop=1;jettySize=auto;html=1;exitX=0.5;exitY=0;exitDx=0;exitDy=0;entryX=0.5;entryY=0;entryDx=0;entryDy=0;" edge="1" parent="1" source="bSU5-OepussvrXAUUQVM-114" target="bSU5-OepussvrXAUUQVM-138">
          <mxGeometry relative="1" as="geometry">
            <Array as="points">
              <mxPoint x="1120" y="2130" />
              <mxPoint x="715" y="2130" />
            </Array>
          </mxGeometry>
        </mxCell>
        <mxCell id="bSU5-OepussvrXAUUQVM-114" value="Execute Buy order" style="rounded=1;whiteSpace=wrap;html=1;" vertex="1" parent="1">
          <mxGeometry x="1060" y="2340" width="120" height="60" as="geometry" />
        </mxCell>
        <mxCell id="bSU5-OepussvrXAUUQVM-134" style="edgeStyle=orthogonalEdgeStyle;rounded=0;orthogonalLoop=1;jettySize=auto;html=1;exitX=0.5;exitY=1;exitDx=0;exitDy=0;entryX=0.5;entryY=0;entryDx=0;entryDy=0;" edge="1" parent="1" source="bSU5-OepussvrXAUUQVM-116" target="bSU5-OepussvrXAUUQVM-101">
          <mxGeometry relative="1" as="geometry" />
        </mxCell>
        <mxCell id="bSU5-OepussvrXAUUQVM-116" value="Start" style="ellipse;whiteSpace=wrap;html=1;aspect=fixed;" vertex="1" parent="1">
          <mxGeometry x="925" y="2160" width="40" height="40" as="geometry" />
        </mxCell>
        <mxCell id="bSU5-OepussvrXAUUQVM-130" style="edgeStyle=orthogonalEdgeStyle;rounded=0;orthogonalLoop=1;jettySize=auto;html=1;exitX=1;exitY=0.5;exitDx=0;exitDy=0;entryX=0.5;entryY=1;entryDx=0;entryDy=0;" edge="1" parent="1" source="bSU5-OepussvrXAUUQVM-122" target="bSU5-OepussvrXAUUQVM-114">
          <mxGeometry relative="1" as="geometry" />
        </mxCell>
        <mxCell id="bSU5-OepussvrXAUUQVM-157" value="Yes" style="edgeLabel;html=1;align=center;verticalAlign=middle;resizable=0;points=[];" vertex="1" connectable="0" parent="bSU5-OepussvrXAUUQVM-130">
          <mxGeometry x="-0.9802" relative="1" as="geometry">
            <mxPoint x="11" y="-15" as="offset" />
          </mxGeometry>
        </mxCell>
        <mxCell id="bSU5-OepussvrXAUUQVM-137" style="edgeStyle=orthogonalEdgeStyle;rounded=0;orthogonalLoop=1;jettySize=auto;html=1;exitX=0;exitY=0.5;exitDx=0;exitDy=0;entryX=0;entryY=0.5;entryDx=0;entryDy=0;" edge="1" parent="1" source="bSU5-OepussvrXAUUQVM-122" target="bSU5-OepussvrXAUUQVM-138">
          <mxGeometry relative="1" as="geometry">
            <mxPoint x="590" y="2380" as="targetPoint" />
            <Array as="points">
              <mxPoint x="580" y="2895" />
              <mxPoint x="580" y="2260" />
            </Array>
          </mxGeometry>
        </mxCell>
        <mxCell id="bSU5-OepussvrXAUUQVM-158" value="No" style="edgeLabel;html=1;align=center;verticalAlign=middle;resizable=0;points=[];" vertex="1" connectable="0" parent="bSU5-OepussvrXAUUQVM-137">
          <mxGeometry x="-0.9869" y="1" relative="1" as="geometry">
            <mxPoint x="-10" y="-16" as="offset" />
          </mxGeometry>
        </mxCell>
        <mxCell id="bSU5-OepussvrXAUUQVM-122" value="Price &amp;lt;= Buy price &lt;br&gt;(according to the user setting)" style="rhombus;whiteSpace=wrap;html=1;shadow=0;fontFamily=Helvetica;fontSize=12;align=center;strokeWidth=1;spacing=6;spacingTop=-4;" vertex="1" parent="1">
          <mxGeometry x="846.25" y="2840" width="197.5" height="110" as="geometry" />
        </mxCell>
        <mxCell id="bSU5-OepussvrXAUUQVM-128" style="edgeStyle=orthogonalEdgeStyle;rounded=0;orthogonalLoop=1;jettySize=auto;html=1;exitX=0.5;exitY=1;exitDx=0;exitDy=0;entryX=0.5;entryY=0;entryDx=0;entryDy=0;" edge="1" parent="1" source="bSU5-OepussvrXAUUQVM-123" target="bSU5-OepussvrXAUUQVM-108">
          <mxGeometry relative="1" as="geometry" />
        </mxCell>
        <mxCell id="bSU5-OepussvrXAUUQVM-154" value="No" style="edgeLabel;html=1;align=center;verticalAlign=middle;resizable=0;points=[];" vertex="1" connectable="0" parent="bSU5-OepussvrXAUUQVM-128">
          <mxGeometry x="-0.696" y="-1" relative="1" as="geometry">
            <mxPoint x="16" y="2" as="offset" />
          </mxGeometry>
        </mxCell>
        <mxCell id="bSU5-OepussvrXAUUQVM-133" style="edgeStyle=orthogonalEdgeStyle;rounded=0;orthogonalLoop=1;jettySize=auto;html=1;exitX=0;exitY=0.5;exitDx=0;exitDy=0;entryX=1;entryY=0.5;entryDx=0;entryDy=0;" edge="1" parent="1" source="bSU5-OepussvrXAUUQVM-123" target="bSU5-OepussvrXAUUQVM-131">
          <mxGeometry relative="1" as="geometry" />
        </mxCell>
        <mxCell id="bSU5-OepussvrXAUUQVM-153" value="Yes" style="edgeLabel;html=1;align=center;verticalAlign=middle;resizable=0;points=[];" vertex="1" connectable="0" parent="bSU5-OepussvrXAUUQVM-133">
          <mxGeometry x="-0.8441" y="-2" relative="1" as="geometry">
            <mxPoint x="-5" y="-8" as="offset" />
          </mxGeometry>
        </mxCell>
        <mxCell id="bSU5-OepussvrXAUUQVM-123" value="Profit &amp;gt;= Stop Earn" style="rhombus;whiteSpace=wrap;html=1;shadow=0;fontFamily=Helvetica;fontSize=12;align=center;strokeWidth=1;spacing=6;spacingTop=-4;" vertex="1" parent="1">
          <mxGeometry x="862.5" y="2580" width="165" height="80" as="geometry" />
        </mxCell>
        <mxCell id="bSU5-OepussvrXAUUQVM-127" style="edgeStyle=orthogonalEdgeStyle;rounded=0;orthogonalLoop=1;jettySize=auto;html=1;exitX=0.5;exitY=1;exitDx=0;exitDy=0;" edge="1" parent="1" source="bSU5-OepussvrXAUUQVM-124" target="bSU5-OepussvrXAUUQVM-123">
          <mxGeometry relative="1" as="geometry" />
        </mxCell>
        <mxCell id="bSU5-OepussvrXAUUQVM-152" value="No" style="edgeLabel;html=1;align=center;verticalAlign=middle;resizable=0;points=[];" vertex="1" connectable="0" parent="bSU5-OepussvrXAUUQVM-127">
          <mxGeometry x="-0.7" relative="1" as="geometry">
            <mxPoint x="15" y="14" as="offset" />
          </mxGeometry>
        </mxCell>
        <mxCell id="bSU5-OepussvrXAUUQVM-132" style="edgeStyle=orthogonalEdgeStyle;rounded=0;orthogonalLoop=1;jettySize=auto;html=1;exitX=0;exitY=0.5;exitDx=0;exitDy=0;" edge="1" parent="1" source="bSU5-OepussvrXAUUQVM-124" target="bSU5-OepussvrXAUUQVM-131">
          <mxGeometry relative="1" as="geometry" />
        </mxCell>
        <mxCell id="bSU5-OepussvrXAUUQVM-150" value="Yes" style="edgeLabel;html=1;align=center;verticalAlign=middle;resizable=0;points=[];" vertex="1" connectable="0" parent="bSU5-OepussvrXAUUQVM-132">
          <mxGeometry x="-0.8193" y="-2" relative="1" as="geometry">
            <mxPoint x="-3" y="-8" as="offset" />
          </mxGeometry>
        </mxCell>
        <mxCell id="bSU5-OepussvrXAUUQVM-124" value="Profit &amp;lt;= -Stop Loss" style="rhombus;whiteSpace=wrap;html=1;shadow=0;fontFamily=Helvetica;fontSize=12;align=center;strokeWidth=1;spacing=6;spacingTop=-4;" vertex="1" parent="1">
          <mxGeometry x="862.5" y="2460" width="165" height="80" as="geometry" />
        </mxCell>
        <mxCell id="bSU5-OepussvrXAUUQVM-146" style="edgeStyle=orthogonalEdgeStyle;rounded=0;orthogonalLoop=1;jettySize=auto;html=1;exitX=0.5;exitY=0;exitDx=0;exitDy=0;entryX=0.5;entryY=1;entryDx=0;entryDy=0;" edge="1" parent="1" source="bSU5-OepussvrXAUUQVM-131" target="bSU5-OepussvrXAUUQVM-145">
          <mxGeometry relative="1" as="geometry" />
        </mxCell>
        <mxCell id="bSU5-OepussvrXAUUQVM-131" value="Execute Sell order" style="rounded=1;whiteSpace=wrap;html=1;fontSize=12;glass=0;strokeWidth=1;shadow=0;" vertex="1" parent="1">
          <mxGeometry x="655" y="2540" width="120" height="40" as="geometry" />
        </mxCell>
        <mxCell id="bSU5-OepussvrXAUUQVM-140" style="edgeStyle=orthogonalEdgeStyle;rounded=0;orthogonalLoop=1;jettySize=auto;html=1;exitX=1;exitY=0.5;exitDx=0;exitDy=0;entryX=0;entryY=0.5;entryDx=0;entryDy=0;" edge="1" parent="1" source="bSU5-OepussvrXAUUQVM-138" target="bSU5-OepussvrXAUUQVM-101">
          <mxGeometry relative="1" as="geometry" />
        </mxCell>
        <mxCell id="bSU5-OepussvrXAUUQVM-148" value="Yes" style="edgeLabel;html=1;align=center;verticalAlign=middle;resizable=0;points=[];" vertex="1" connectable="0" parent="bSU5-OepussvrXAUUQVM-140">
          <mxGeometry x="-0.7505" y="-2" relative="1" as="geometry">
            <mxPoint x="-4" y="-12" as="offset" />
          </mxGeometry>
        </mxCell>
        <mxCell id="bSU5-OepussvrXAUUQVM-144" style="edgeStyle=orthogonalEdgeStyle;rounded=0;orthogonalLoop=1;jettySize=auto;html=1;exitX=0.5;exitY=1;exitDx=0;exitDy=0;entryX=0.5;entryY=0;entryDx=0;entryDy=0;" edge="1" parent="1" source="bSU5-OepussvrXAUUQVM-138" target="bSU5-OepussvrXAUUQVM-145">
          <mxGeometry relative="1" as="geometry">
            <mxPoint x="715.3333333333335" y="2390" as="targetPoint" />
          </mxGeometry>
        </mxCell>
        <mxCell id="bSU5-OepussvrXAUUQVM-149" value="No" style="edgeLabel;html=1;align=center;verticalAlign=middle;resizable=0;points=[];" vertex="1" connectable="0" parent="bSU5-OepussvrXAUUQVM-144">
          <mxGeometry x="-0.7972" y="-1" relative="1" as="geometry">
            <mxPoint x="16" as="offset" />
          </mxGeometry>
        </mxCell>
        <mxCell id="bSU5-OepussvrXAUUQVM-138" value="Next day exists?" style="rhombus;whiteSpace=wrap;html=1;" vertex="1" parent="1">
          <mxGeometry x="660" y="2220" width="110" height="80" as="geometry" />
        </mxCell>
        <mxCell id="bSU5-OepussvrXAUUQVM-145" value="End" style="ellipse;whiteSpace=wrap;html=1;aspect=fixed;" vertex="1" parent="1">
          <mxGeometry x="695" y="2400" width="40" height="40" as="geometry" />
        </mxCell>
        <mxCell id="bSU5-OepussvrXAUUQVM-166" style="edgeStyle=orthogonalEdgeStyle;rounded=0;orthogonalLoop=1;jettySize=auto;html=1;exitX=0.5;exitY=1;exitDx=0;exitDy=0;" edge="1" parent="1" source="bSU5-OepussvrXAUUQVM-159" target="bSU5-OepussvrXAUUQVM-165">
          <mxGeometry relative="1" as="geometry" />
        </mxCell>
        <mxCell id="bSU5-OepussvrXAUUQVM-159" value="Start" style="ellipse;whiteSpace=wrap;html=1;aspect=fixed;" vertex="1" parent="1">
          <mxGeometry x="760" y="3290" width="60" height="60" as="geometry" />
        </mxCell>
        <mxCell id="bSU5-OepussvrXAUUQVM-164" style="edgeStyle=orthogonalEdgeStyle;rounded=0;orthogonalLoop=1;jettySize=auto;html=1;exitX=0.5;exitY=1;exitDx=0;exitDy=0;" edge="1" parent="1" source="bSU5-OepussvrXAUUQVM-161" target="bSU5-OepussvrXAUUQVM-163">
          <mxGeometry relative="1" as="geometry" />
        </mxCell>
        <mxCell id="bSU5-OepussvrXAUUQVM-161" value="For Each Price value" style="rounded=1;whiteSpace=wrap;html=1;fontSize=12;glass=0;strokeWidth=1;shadow=0;" vertex="1" parent="1">
          <mxGeometry x="730" y="3520" width="120" height="40" as="geometry" />
        </mxCell>
        <mxCell id="bSU5-OepussvrXAUUQVM-169" style="edgeStyle=orthogonalEdgeStyle;rounded=0;orthogonalLoop=1;jettySize=auto;html=1;exitX=1;exitY=0.5;exitDx=0;exitDy=0;entryX=0;entryY=0.5;entryDx=0;entryDy=0;" edge="1" parent="1" source="bSU5-OepussvrXAUUQVM-163" target="bSU5-OepussvrXAUUQVM-168">
          <mxGeometry relative="1" as="geometry" />
        </mxCell>
        <mxCell id="bSU5-OepussvrXAUUQVM-173" value="Yes" style="edgeLabel;html=1;align=center;verticalAlign=middle;resizable=0;points=[];" vertex="1" connectable="0" parent="bSU5-OepussvrXAUUQVM-169">
          <mxGeometry x="-0.3388" y="1" relative="1" as="geometry">
            <mxPoint x="2" y="-9" as="offset" />
          </mxGeometry>
        </mxCell>
        <mxCell id="bSU5-OepussvrXAUUQVM-177" style="edgeStyle=orthogonalEdgeStyle;rounded=0;orthogonalLoop=1;jettySize=auto;html=1;exitX=0.5;exitY=1;exitDx=0;exitDy=0;" edge="1" parent="1" source="bSU5-OepussvrXAUUQVM-163" target="bSU5-OepussvrXAUUQVM-176">
          <mxGeometry relative="1" as="geometry" />
        </mxCell>
        <mxCell id="bSU5-OepussvrXAUUQVM-190" value="No" style="edgeLabel;html=1;align=center;verticalAlign=middle;resizable=0;points=[];" vertex="1" connectable="0" parent="bSU5-OepussvrXAUUQVM-177">
          <mxGeometry x="-0.76" y="-1" relative="1" as="geometry">
            <mxPoint x="11" y="14" as="offset" />
          </mxGeometry>
        </mxCell>
        <mxCell id="bSU5-OepussvrXAUUQVM-163" value="holding assets == 0" style="rhombus;whiteSpace=wrap;html=1;shadow=0;fontFamily=Helvetica;fontSize=12;align=center;strokeWidth=1;spacing=6;spacingTop=-4;" vertex="1" parent="1">
          <mxGeometry x="725" y="3620" width="130" height="80" as="geometry" />
        </mxCell>
        <mxCell id="bSU5-OepussvrXAUUQVM-167" style="edgeStyle=orthogonalEdgeStyle;rounded=0;orthogonalLoop=1;jettySize=auto;html=1;exitX=0.5;exitY=1;exitDx=0;exitDy=0;" edge="1" parent="1" source="bSU5-OepussvrXAUUQVM-165" target="bSU5-OepussvrXAUUQVM-161">
          <mxGeometry relative="1" as="geometry" />
        </mxCell>
        <mxCell id="bSU5-OepussvrXAUUQVM-165" value="Calculate all required indicator value and store in historicalData object" style="rounded=1;whiteSpace=wrap;html=1;fontSize=12;glass=0;strokeWidth=1;shadow=0;" vertex="1" parent="1">
          <mxGeometry x="722.5" y="3390" width="135" height="80" as="geometry" />
        </mxCell>
        <mxCell id="bSU5-OepussvrXAUUQVM-199" style="edgeStyle=orthogonalEdgeStyle;rounded=0;orthogonalLoop=1;jettySize=auto;html=1;exitX=0.5;exitY=1;exitDx=0;exitDy=0;entryX=0.5;entryY=0;entryDx=0;entryDy=0;" edge="1" parent="1" source="bSU5-OepussvrXAUUQVM-168" target="bSU5-OepussvrXAUUQVM-171">
          <mxGeometry relative="1" as="geometry" />
        </mxCell>
        <mxCell id="bSU5-OepussvrXAUUQVM-168" value="Check Buy Condition Group" style="rounded=1;whiteSpace=wrap;html=1;fontSize=12;glass=0;strokeWidth=1;shadow=0;" vertex="1" parent="1">
          <mxGeometry x="920" y="3640" width="120" height="40" as="geometry" />
        </mxCell>
        <mxCell id="bSU5-OepussvrXAUUQVM-200" style="edgeStyle=orthogonalEdgeStyle;rounded=0;orthogonalLoop=1;jettySize=auto;html=1;exitX=0.5;exitY=1;exitDx=0;exitDy=0;entryX=0.5;entryY=0;entryDx=0;entryDy=0;" edge="1" parent="1" source="bSU5-OepussvrXAUUQVM-171" target="bSU5-OepussvrXAUUQVM-174">
          <mxGeometry relative="1" as="geometry" />
        </mxCell>
        <mxCell id="bSU5-OepussvrXAUUQVM-204" value="Yes" style="edgeLabel;html=1;align=center;verticalAlign=middle;resizable=0;points=[];" vertex="1" connectable="0" parent="bSU5-OepussvrXAUUQVM-200">
          <mxGeometry x="-0.744" relative="1" as="geometry">
            <mxPoint x="20" y="14" as="offset" />
          </mxGeometry>
        </mxCell>
        <mxCell id="bSU5-OepussvrXAUUQVM-202" style="edgeStyle=orthogonalEdgeStyle;rounded=0;orthogonalLoop=1;jettySize=auto;html=1;exitX=1;exitY=0.5;exitDx=0;exitDy=0;entryX=0;entryY=0.5;entryDx=0;entryDy=0;" edge="1" parent="1" source="bSU5-OepussvrXAUUQVM-171" target="bSU5-OepussvrXAUUQVM-217">
          <mxGeometry relative="1" as="geometry">
            <mxPoint x="1130" y="3795" as="targetPoint" />
          </mxGeometry>
        </mxCell>
        <mxCell id="bSU5-OepussvrXAUUQVM-203" value="No" style="edgeLabel;html=1;align=center;verticalAlign=middle;resizable=0;points=[];" vertex="1" connectable="0" parent="bSU5-OepussvrXAUUQVM-202">
          <mxGeometry x="-0.702" y="2" relative="1" as="geometry">
            <mxPoint x="10" y="-13" as="offset" />
          </mxGeometry>
        </mxCell>
        <mxCell id="bSU5-OepussvrXAUUQVM-171" value="All Group and rules satisfied" style="rhombus;whiteSpace=wrap;html=1;shadow=0;fontFamily=Helvetica;fontSize=12;align=center;strokeWidth=1;spacing=6;spacingTop=-4;" vertex="1" parent="1">
          <mxGeometry x="900" y="3750" width="160" height="90" as="geometry" />
        </mxCell>
        <mxCell id="bSU5-OepussvrXAUUQVM-218" style="edgeStyle=orthogonalEdgeStyle;rounded=0;orthogonalLoop=1;jettySize=auto;html=1;exitX=1;exitY=0.5;exitDx=0;exitDy=0;" edge="1" parent="1" source="bSU5-OepussvrXAUUQVM-174" target="bSU5-OepussvrXAUUQVM-217">
          <mxGeometry relative="1" as="geometry" />
        </mxCell>
        <mxCell id="bSU5-OepussvrXAUUQVM-174" value="Execute Buy order" style="rounded=1;whiteSpace=wrap;html=1;fontSize=12;glass=0;strokeWidth=1;shadow=0;" vertex="1" parent="1">
          <mxGeometry x="920" y="3890" width="120" height="40" as="geometry" />
        </mxCell>
        <mxCell id="bSU5-OepussvrXAUUQVM-180" style="edgeStyle=orthogonalEdgeStyle;rounded=0;orthogonalLoop=1;jettySize=auto;html=1;exitX=0.5;exitY=1;exitDx=0;exitDy=0;entryX=0.5;entryY=0;entryDx=0;entryDy=0;" edge="1" parent="1" source="bSU5-OepussvrXAUUQVM-176" target="bSU5-OepussvrXAUUQVM-179">
          <mxGeometry relative="1" as="geometry" />
        </mxCell>
        <mxCell id="bSU5-OepussvrXAUUQVM-220" value="No" style="edgeLabel;html=1;align=center;verticalAlign=middle;resizable=0;points=[];" vertex="1" connectable="0" parent="bSU5-OepussvrXAUUQVM-180">
          <mxGeometry x="-0.7538" relative="1" as="geometry">
            <mxPoint x="10" y="5" as="offset" />
          </mxGeometry>
        </mxCell>
        <mxCell id="bSU5-OepussvrXAUUQVM-186" style="edgeStyle=orthogonalEdgeStyle;rounded=0;orthogonalLoop=1;jettySize=auto;html=1;exitX=0;exitY=0.5;exitDx=0;exitDy=0;entryX=1;entryY=0.5;entryDx=0;entryDy=0;" edge="1" parent="1" source="bSU5-OepussvrXAUUQVM-176" target="bSU5-OepussvrXAUUQVM-178">
          <mxGeometry relative="1" as="geometry" />
        </mxCell>
        <mxCell id="bSU5-OepussvrXAUUQVM-191" value="Yes" style="edgeLabel;html=1;align=center;verticalAlign=middle;resizable=0;points=[];" vertex="1" connectable="0" parent="bSU5-OepussvrXAUUQVM-186">
          <mxGeometry x="-0.7628" y="2" relative="1" as="geometry">
            <mxPoint x="5" y="-12" as="offset" />
          </mxGeometry>
        </mxCell>
        <mxCell id="bSU5-OepussvrXAUUQVM-176" value="profit &amp;lt;= -stop loss" style="rhombus;whiteSpace=wrap;html=1;shadow=0;fontFamily=Helvetica;fontSize=12;align=center;strokeWidth=1;spacing=6;spacingTop=-4;" vertex="1" parent="1">
          <mxGeometry x="725" y="3750" width="130" height="80" as="geometry" />
        </mxCell>
        <mxCell id="bSU5-OepussvrXAUUQVM-213" style="edgeStyle=orthogonalEdgeStyle;rounded=0;orthogonalLoop=1;jettySize=auto;html=1;exitX=0;exitY=0.5;exitDx=0;exitDy=0;entryX=1;entryY=0.5;entryDx=0;entryDy=0;" edge="1" parent="1" source="bSU5-OepussvrXAUUQVM-178" target="bSU5-OepussvrXAUUQVM-212">
          <mxGeometry relative="1" as="geometry" />
        </mxCell>
        <mxCell id="bSU5-OepussvrXAUUQVM-178" value="Execute Sell order" style="rounded=1;whiteSpace=wrap;html=1;fontSize=12;glass=0;strokeWidth=1;shadow=0;" vertex="1" parent="1">
          <mxGeometry x="499.75" y="3830" width="120" height="40" as="geometry" />
        </mxCell>
        <mxCell id="bSU5-OepussvrXAUUQVM-182" style="edgeStyle=orthogonalEdgeStyle;rounded=0;orthogonalLoop=1;jettySize=auto;html=1;exitX=0.5;exitY=1;exitDx=0;exitDy=0;entryX=0.5;entryY=0;entryDx=0;entryDy=0;" edge="1" parent="1" source="bSU5-OepussvrXAUUQVM-179" target="bSU5-OepussvrXAUUQVM-181">
          <mxGeometry relative="1" as="geometry" />
        </mxCell>
        <mxCell id="bSU5-OepussvrXAUUQVM-221" value="No" style="edgeLabel;html=1;align=center;verticalAlign=middle;resizable=0;points=[];" vertex="1" connectable="0" parent="bSU5-OepussvrXAUUQVM-182">
          <mxGeometry x="-0.7031" relative="1" as="geometry">
            <mxPoint x="10" y="13" as="offset" />
          </mxGeometry>
        </mxCell>
        <mxCell id="bSU5-OepussvrXAUUQVM-188" style="edgeStyle=orthogonalEdgeStyle;rounded=0;orthogonalLoop=1;jettySize=auto;html=1;exitX=0;exitY=0.5;exitDx=0;exitDy=0;entryX=1;entryY=0.5;entryDx=0;entryDy=0;" edge="1" parent="1" source="bSU5-OepussvrXAUUQVM-179" target="bSU5-OepussvrXAUUQVM-178">
          <mxGeometry relative="1" as="geometry" />
        </mxCell>
        <mxCell id="bSU5-OepussvrXAUUQVM-192" value="Yes" style="edgeLabel;html=1;align=center;verticalAlign=middle;resizable=0;points=[];" vertex="1" connectable="0" parent="bSU5-OepussvrXAUUQVM-188">
          <mxGeometry x="-0.8402" relative="1" as="geometry">
            <mxPoint x="-2" y="-10" as="offset" />
          </mxGeometry>
        </mxCell>
        <mxCell id="bSU5-OepussvrXAUUQVM-179" value="profit &amp;gt;= stop earn" style="rhombus;whiteSpace=wrap;html=1;shadow=0;fontFamily=Helvetica;fontSize=12;align=center;strokeWidth=1;spacing=6;spacingTop=-4;" vertex="1" parent="1">
          <mxGeometry x="725" y="3870" width="130" height="80" as="geometry" />
        </mxCell>
        <mxCell id="bSU5-OepussvrXAUUQVM-184" style="edgeStyle=orthogonalEdgeStyle;rounded=0;orthogonalLoop=1;jettySize=auto;html=1;exitX=0.5;exitY=1;exitDx=0;exitDy=0;" edge="1" parent="1" source="bSU5-OepussvrXAUUQVM-181" target="bSU5-OepussvrXAUUQVM-183">
          <mxGeometry relative="1" as="geometry" />
        </mxCell>
        <mxCell id="bSU5-OepussvrXAUUQVM-181" value="Check Sell Condition Group" style="rounded=1;whiteSpace=wrap;html=1;fontSize=12;glass=0;strokeWidth=1;shadow=0;" vertex="1" parent="1">
          <mxGeometry x="730" y="4000" width="120" height="40" as="geometry" />
        </mxCell>
        <mxCell id="bSU5-OepussvrXAUUQVM-189" style="edgeStyle=orthogonalEdgeStyle;rounded=0;orthogonalLoop=1;jettySize=auto;html=1;exitX=0;exitY=0.5;exitDx=0;exitDy=0;" edge="1" parent="1" source="bSU5-OepussvrXAUUQVM-183" target="bSU5-OepussvrXAUUQVM-178">
          <mxGeometry relative="1" as="geometry" />
        </mxCell>
        <mxCell id="bSU5-OepussvrXAUUQVM-193" value="Yes" style="edgeLabel;html=1;align=center;verticalAlign=middle;resizable=0;points=[];" vertex="1" connectable="0" parent="bSU5-OepussvrXAUUQVM-189">
          <mxGeometry x="-0.9075" y="-1" relative="1" as="geometry">
            <mxPoint y="-9" as="offset" />
          </mxGeometry>
        </mxCell>
        <mxCell id="bSU5-OepussvrXAUUQVM-210" style="edgeStyle=orthogonalEdgeStyle;rounded=0;orthogonalLoop=1;jettySize=auto;html=1;exitX=0.5;exitY=1;exitDx=0;exitDy=0;entryX=0.5;entryY=1;entryDx=0;entryDy=0;" edge="1" parent="1" source="bSU5-OepussvrXAUUQVM-183" target="bSU5-OepussvrXAUUQVM-212">
          <mxGeometry relative="1" as="geometry">
            <mxPoint x="470" y="3880" as="targetPoint" />
          </mxGeometry>
        </mxCell>
        <mxCell id="bSU5-OepussvrXAUUQVM-216" value="No" style="edgeLabel;html=1;align=center;verticalAlign=middle;resizable=0;points=[];" vertex="1" connectable="0" parent="bSU5-OepussvrXAUUQVM-210">
          <mxGeometry x="-0.9548" relative="1" as="geometry">
            <mxPoint x="10" as="offset" />
          </mxGeometry>
        </mxCell>
        <mxCell id="bSU5-OepussvrXAUUQVM-183" value="All Group and rules satisfied" style="rhombus;whiteSpace=wrap;html=1;shadow=0;fontFamily=Helvetica;fontSize=12;align=center;strokeWidth=1;spacing=6;spacingTop=-4;" vertex="1" parent="1">
          <mxGeometry x="713.75" y="4080" width="152.5" height="100" as="geometry" />
        </mxCell>
        <mxCell id="bSU5-OepussvrXAUUQVM-205" style="edgeStyle=orthogonalEdgeStyle;rounded=0;orthogonalLoop=1;jettySize=auto;html=1;exitX=1;exitY=0.5;exitDx=0;exitDy=0;entryX=0;entryY=0.5;entryDx=0;entryDy=0;" edge="1" parent="1" source="bSU5-OepussvrXAUUQVM-196" target="bSU5-OepussvrXAUUQVM-161">
          <mxGeometry relative="1" as="geometry" />
        </mxCell>
        <mxCell id="bSU5-OepussvrXAUUQVM-209" value="Yes" style="edgeLabel;html=1;align=center;verticalAlign=middle;resizable=0;points=[];" vertex="1" connectable="0" parent="bSU5-OepussvrXAUUQVM-205">
          <mxGeometry x="-0.8413" y="-1" relative="1" as="geometry">
            <mxPoint x="12" y="-11" as="offset" />
          </mxGeometry>
        </mxCell>
        <mxCell id="bSU5-OepussvrXAUUQVM-207" style="edgeStyle=orthogonalEdgeStyle;rounded=0;orthogonalLoop=1;jettySize=auto;html=1;exitX=0.5;exitY=1;exitDx=0;exitDy=0;" edge="1" parent="1" source="bSU5-OepussvrXAUUQVM-196" target="bSU5-OepussvrXAUUQVM-206">
          <mxGeometry relative="1" as="geometry" />
        </mxCell>
        <mxCell id="bSU5-OepussvrXAUUQVM-208" value="No" style="edgeLabel;html=1;align=center;verticalAlign=middle;resizable=0;points=[];" vertex="1" connectable="0" parent="bSU5-OepussvrXAUUQVM-207">
          <mxGeometry x="-0.7311" relative="1" as="geometry">
            <mxPoint x="15" y="13" as="offset" />
          </mxGeometry>
        </mxCell>
        <mxCell id="bSU5-OepussvrXAUUQVM-196" value="Next day exists?" style="rhombus;whiteSpace=wrap;html=1;" vertex="1" parent="1">
          <mxGeometry x="509.75" y="3500" width="110" height="80" as="geometry" />
        </mxCell>
        <mxCell id="bSU5-OepussvrXAUUQVM-206" value="End" style="ellipse;whiteSpace=wrap;html=1;aspect=fixed;" vertex="1" parent="1">
          <mxGeometry x="534.75" y="3630" width="60" height="60" as="geometry" />
        </mxCell>
        <mxCell id="bSU5-OepussvrXAUUQVM-215" style="edgeStyle=orthogonalEdgeStyle;rounded=0;orthogonalLoop=1;jettySize=auto;html=1;exitX=0.5;exitY=0;exitDx=0;exitDy=0;entryX=0;entryY=0.5;entryDx=0;entryDy=0;" edge="1" parent="1" source="bSU5-OepussvrXAUUQVM-212" target="bSU5-OepussvrXAUUQVM-196">
          <mxGeometry relative="1" as="geometry" />
        </mxCell>
        <mxCell id="bSU5-OepussvrXAUUQVM-212" value="" style="ellipse;whiteSpace=wrap;html=1;aspect=fixed;" vertex="1" parent="1">
          <mxGeometry x="460" y="3840" width="20" height="20" as="geometry" />
        </mxCell>
        <mxCell id="bSU5-OepussvrXAUUQVM-219" style="edgeStyle=orthogonalEdgeStyle;rounded=0;orthogonalLoop=1;jettySize=auto;html=1;exitX=0.5;exitY=0;exitDx=0;exitDy=0;entryX=0.5;entryY=0;entryDx=0;entryDy=0;" edge="1" parent="1" source="bSU5-OepussvrXAUUQVM-217" target="bSU5-OepussvrXAUUQVM-196">
          <mxGeometry relative="1" as="geometry">
            <Array as="points">
              <mxPoint x="1130" y="3280" />
              <mxPoint x="565" y="3280" />
            </Array>
          </mxGeometry>
        </mxCell>
        <mxCell id="bSU5-OepussvrXAUUQVM-217" value="" style="ellipse;whiteSpace=wrap;html=1;aspect=fixed;" vertex="1" parent="1">
          <mxGeometry x="1120" y="3785" width="20" height="20" as="geometry" />
        </mxCell>
        <mxCell id="bSU5-OepussvrXAUUQVM-227" style="rounded=0;orthogonalLoop=1;jettySize=auto;html=1;exitX=1;exitY=0.5;exitDx=0;exitDy=0;entryX=0;entryY=0.5;entryDx=0;entryDy=0;" edge="1" parent="1" source="bSU5-OepussvrXAUUQVM-222" target="bSU5-OepussvrXAUUQVM-223">
          <mxGeometry relative="1" as="geometry" />
        </mxCell>
        <mxCell id="bSU5-OepussvrXAUUQVM-228" style="rounded=0;orthogonalLoop=1;jettySize=auto;html=1;exitX=1;exitY=0.5;exitDx=0;exitDy=0;entryX=0;entryY=0.5;entryDx=0;entryDy=0;" edge="1" parent="1" source="bSU5-OepussvrXAUUQVM-222" target="bSU5-OepussvrXAUUQVM-224">
          <mxGeometry relative="1" as="geometry" />
        </mxCell>
        <mxCell id="bSU5-OepussvrXAUUQVM-229" style="rounded=0;orthogonalLoop=1;jettySize=auto;html=1;exitX=1;exitY=0.5;exitDx=0;exitDy=0;entryX=0;entryY=0.5;entryDx=0;entryDy=0;" edge="1" parent="1" source="bSU5-OepussvrXAUUQVM-222" target="bSU5-OepussvrXAUUQVM-225">
          <mxGeometry relative="1" as="geometry" />
        </mxCell>
        <mxCell id="bSU5-OepussvrXAUUQVM-222" value="Buy/Sell Conditions" style="rounded=0;whiteSpace=wrap;html=1;" vertex="1" parent="1">
          <mxGeometry x="205" y="4500" width="120" height="60" as="geometry" />
        </mxCell>
        <mxCell id="bSU5-OepussvrXAUUQVM-230" style="edgeStyle=orthogonalEdgeStyle;rounded=0;orthogonalLoop=1;jettySize=auto;html=1;exitX=0.5;exitY=1;exitDx=0;exitDy=0;entryX=0.5;entryY=0;entryDx=0;entryDy=0;dashed=1;dashPattern=12 12;endArrow=none;endFill=0;" edge="1" parent="1" source="bSU5-OepussvrXAUUQVM-223" target="bSU5-OepussvrXAUUQVM-224">
          <mxGeometry relative="1" as="geometry" />
        </mxCell>
        <mxCell id="bSU5-OepussvrXAUUQVM-248" style="rounded=0;orthogonalLoop=1;jettySize=auto;html=1;exitX=1;exitY=0.5;exitDx=0;exitDy=0;entryX=0;entryY=0.5;entryDx=0;entryDy=0;" edge="1" parent="1" source="bSU5-OepussvrXAUUQVM-223" target="bSU5-OepussvrXAUUQVM-233">
          <mxGeometry relative="1" as="geometry" />
        </mxCell>
        <mxCell id="bSU5-OepussvrXAUUQVM-249" style="rounded=0;orthogonalLoop=1;jettySize=auto;html=1;exitX=1;exitY=0.5;exitDx=0;exitDy=0;entryX=0;entryY=0.5;entryDx=0;entryDy=0;" edge="1" parent="1" source="bSU5-OepussvrXAUUQVM-223" target="bSU5-OepussvrXAUUQVM-234">
          <mxGeometry relative="1" as="geometry" />
        </mxCell>
        <mxCell id="bSU5-OepussvrXAUUQVM-251" style="rounded=0;orthogonalLoop=1;jettySize=auto;html=1;exitX=1;exitY=0.5;exitDx=0;exitDy=0;entryX=0;entryY=0.5;entryDx=0;entryDy=0;" edge="1" parent="1" source="bSU5-OepussvrXAUUQVM-223" target="bSU5-OepussvrXAUUQVM-232">
          <mxGeometry relative="1" as="geometry" />
        </mxCell>
        <mxCell id="bSU5-OepussvrXAUUQVM-223" value="Group 1" style="rounded=0;whiteSpace=wrap;html=1;" vertex="1" parent="1">
          <mxGeometry x="420" y="4360" width="120" height="60" as="geometry" />
        </mxCell>
        <mxCell id="bSU5-OepussvrXAUUQVM-226" style="edgeStyle=orthogonalEdgeStyle;rounded=0;orthogonalLoop=1;jettySize=auto;html=1;exitX=0.5;exitY=1;exitDx=0;exitDy=0;entryX=0.5;entryY=0;entryDx=0;entryDy=0;endArrow=none;endFill=0;dashed=1;dashPattern=12 12;" edge="1" parent="1" source="bSU5-OepussvrXAUUQVM-224" target="bSU5-OepussvrXAUUQVM-225">
          <mxGeometry relative="1" as="geometry" />
        </mxCell>
        <mxCell id="bSU5-OepussvrXAUUQVM-252" style="rounded=0;orthogonalLoop=1;jettySize=auto;html=1;exitX=1;exitY=0.5;exitDx=0;exitDy=0;entryX=0;entryY=0.5;entryDx=0;entryDy=0;" edge="1" parent="1" source="bSU5-OepussvrXAUUQVM-224" target="bSU5-OepussvrXAUUQVM-239">
          <mxGeometry relative="1" as="geometry" />
        </mxCell>
        <mxCell id="bSU5-OepussvrXAUUQVM-253" style="rounded=0;orthogonalLoop=1;jettySize=auto;html=1;exitX=1;exitY=0.5;exitDx=0;exitDy=0;entryX=0;entryY=0.5;entryDx=0;entryDy=0;" edge="1" parent="1" source="bSU5-OepussvrXAUUQVM-224" target="bSU5-OepussvrXAUUQVM-241">
          <mxGeometry relative="1" as="geometry" />
        </mxCell>
        <mxCell id="bSU5-OepussvrXAUUQVM-254" style="rounded=0;orthogonalLoop=1;jettySize=auto;html=1;exitX=1;exitY=0.5;exitDx=0;exitDy=0;entryX=0;entryY=0.5;entryDx=0;entryDy=0;" edge="1" parent="1" source="bSU5-OepussvrXAUUQVM-224" target="bSU5-OepussvrXAUUQVM-237">
          <mxGeometry relative="1" as="geometry" />
        </mxCell>
        <mxCell id="bSU5-OepussvrXAUUQVM-224" value="Group 2" style="rounded=0;whiteSpace=wrap;html=1;" vertex="1" parent="1">
          <mxGeometry x="420" y="4500" width="120" height="60" as="geometry" />
        </mxCell>
        <mxCell id="bSU5-OepussvrXAUUQVM-255" style="rounded=0;orthogonalLoop=1;jettySize=auto;html=1;exitX=1;exitY=0.5;exitDx=0;exitDy=0;entryX=0;entryY=0.5;entryDx=0;entryDy=0;" edge="1" parent="1" source="bSU5-OepussvrXAUUQVM-225" target="bSU5-OepussvrXAUUQVM-244">
          <mxGeometry relative="1" as="geometry" />
        </mxCell>
        <mxCell id="bSU5-OepussvrXAUUQVM-256" style="rounded=0;orthogonalLoop=1;jettySize=auto;html=1;exitX=1;exitY=0.5;exitDx=0;exitDy=0;entryX=0;entryY=0.5;entryDx=0;entryDy=0;" edge="1" parent="1" source="bSU5-OepussvrXAUUQVM-225" target="bSU5-OepussvrXAUUQVM-246">
          <mxGeometry relative="1" as="geometry" />
        </mxCell>
        <mxCell id="bSU5-OepussvrXAUUQVM-257" style="rounded=0;orthogonalLoop=1;jettySize=auto;html=1;exitX=1;exitY=0.5;exitDx=0;exitDy=0;entryX=0;entryY=0.5;entryDx=0;entryDy=0;" edge="1" parent="1" source="bSU5-OepussvrXAUUQVM-225" target="bSU5-OepussvrXAUUQVM-242">
          <mxGeometry relative="1" as="geometry" />
        </mxCell>
        <mxCell id="bSU5-OepussvrXAUUQVM-225" value="Group n" style="rounded=0;whiteSpace=wrap;html=1;" vertex="1" parent="1">
          <mxGeometry x="420" y="4680" width="120" height="60" as="geometry" />
        </mxCell>
        <mxCell id="bSU5-OepussvrXAUUQVM-262" style="edgeStyle=orthogonalEdgeStyle;rounded=0;orthogonalLoop=1;jettySize=auto;html=1;exitX=1;exitY=0.5;exitDx=0;exitDy=0;entryX=0;entryY=0.5;entryDx=0;entryDy=0;" edge="1" parent="1" source="bSU5-OepussvrXAUUQVM-232" target="bSU5-OepussvrXAUUQVM-258">
          <mxGeometry relative="1" as="geometry" />
        </mxCell>
        <mxCell id="bSU5-OepussvrXAUUQVM-232" value="Rule n" style="rounded=0;whiteSpace=wrap;html=1;" vertex="1" parent="1">
          <mxGeometry x="660" y="4420" width="90" height="30" as="geometry" />
        </mxCell>
        <mxCell id="bSU5-OepussvrXAUUQVM-235" style="edgeStyle=orthogonalEdgeStyle;rounded=0;orthogonalLoop=1;jettySize=auto;html=1;exitX=0.5;exitY=1;exitDx=0;exitDy=0;entryX=0.5;entryY=0;entryDx=0;entryDy=0;dashed=1;endArrow=none;endFill=0;" edge="1" parent="1" source="bSU5-OepussvrXAUUQVM-233" target="bSU5-OepussvrXAUUQVM-234">
          <mxGeometry relative="1" as="geometry" />
        </mxCell>
        <mxCell id="bSU5-OepussvrXAUUQVM-259" style="edgeStyle=orthogonalEdgeStyle;rounded=0;orthogonalLoop=1;jettySize=auto;html=1;exitX=1;exitY=0.5;exitDx=0;exitDy=0;entryX=0;entryY=0.5;entryDx=0;entryDy=0;" edge="1" parent="1" source="bSU5-OepussvrXAUUQVM-233" target="bSU5-OepussvrXAUUQVM-258">
          <mxGeometry relative="1" as="geometry" />
        </mxCell>
        <mxCell id="bSU5-OepussvrXAUUQVM-233" value="Rule 1" style="rounded=0;whiteSpace=wrap;html=1;" vertex="1" parent="1">
          <mxGeometry x="660" y="4310" width="90" height="30" as="geometry" />
        </mxCell>
        <mxCell id="bSU5-OepussvrXAUUQVM-236" style="edgeStyle=orthogonalEdgeStyle;rounded=0;orthogonalLoop=1;jettySize=auto;html=1;exitX=0.5;exitY=1;exitDx=0;exitDy=0;entryX=0.5;entryY=0;entryDx=0;entryDy=0;dashed=1;endArrow=none;endFill=0;" edge="1" parent="1" source="bSU5-OepussvrXAUUQVM-234" target="bSU5-OepussvrXAUUQVM-232">
          <mxGeometry relative="1" as="geometry" />
        </mxCell>
        <mxCell id="bSU5-OepussvrXAUUQVM-261" style="edgeStyle=orthogonalEdgeStyle;rounded=0;orthogonalLoop=1;jettySize=auto;html=1;exitX=1;exitY=0.5;exitDx=0;exitDy=0;entryX=0;entryY=0.5;entryDx=0;entryDy=0;" edge="1" parent="1" source="bSU5-OepussvrXAUUQVM-234" target="bSU5-OepussvrXAUUQVM-258">
          <mxGeometry relative="1" as="geometry" />
        </mxCell>
        <mxCell id="bSU5-OepussvrXAUUQVM-234" value="Rule 2" style="rounded=0;whiteSpace=wrap;html=1;" vertex="1" parent="1">
          <mxGeometry x="660" y="4360" width="90" height="30" as="geometry" />
        </mxCell>
        <mxCell id="bSU5-OepussvrXAUUQVM-265" style="edgeStyle=orthogonalEdgeStyle;rounded=0;orthogonalLoop=1;jettySize=auto;html=1;exitX=1;exitY=0.5;exitDx=0;exitDy=0;entryX=0;entryY=0.5;entryDx=0;entryDy=0;" edge="1" parent="1" source="bSU5-OepussvrXAUUQVM-237" target="bSU5-OepussvrXAUUQVM-258">
          <mxGeometry relative="1" as="geometry" />
        </mxCell>
        <mxCell id="bSU5-OepussvrXAUUQVM-237" value="Rule n" style="rounded=0;whiteSpace=wrap;html=1;" vertex="1" parent="1">
          <mxGeometry x="660" y="4580" width="90" height="30" as="geometry" />
        </mxCell>
        <mxCell id="bSU5-OepussvrXAUUQVM-238" style="edgeStyle=orthogonalEdgeStyle;rounded=0;orthogonalLoop=1;jettySize=auto;html=1;exitX=0.5;exitY=1;exitDx=0;exitDy=0;entryX=0.5;entryY=0;entryDx=0;entryDy=0;dashed=1;endArrow=none;endFill=0;" edge="1" parent="1" source="bSU5-OepussvrXAUUQVM-239" target="bSU5-OepussvrXAUUQVM-241">
          <mxGeometry relative="1" as="geometry" />
        </mxCell>
        <mxCell id="bSU5-OepussvrXAUUQVM-263" style="edgeStyle=orthogonalEdgeStyle;rounded=0;orthogonalLoop=1;jettySize=auto;html=1;exitX=1;exitY=0.5;exitDx=0;exitDy=0;entryX=0;entryY=0.5;entryDx=0;entryDy=0;" edge="1" parent="1" source="bSU5-OepussvrXAUUQVM-239" target="bSU5-OepussvrXAUUQVM-258">
          <mxGeometry relative="1" as="geometry" />
        </mxCell>
        <mxCell id="bSU5-OepussvrXAUUQVM-239" value="Rule 1" style="rounded=0;whiteSpace=wrap;html=1;" vertex="1" parent="1">
          <mxGeometry x="660" y="4470" width="90" height="30" as="geometry" />
        </mxCell>
        <mxCell id="bSU5-OepussvrXAUUQVM-240" style="edgeStyle=orthogonalEdgeStyle;rounded=0;orthogonalLoop=1;jettySize=auto;html=1;exitX=0.5;exitY=1;exitDx=0;exitDy=0;entryX=0.5;entryY=0;entryDx=0;entryDy=0;dashed=1;endArrow=none;endFill=0;" edge="1" parent="1" source="bSU5-OepussvrXAUUQVM-241" target="bSU5-OepussvrXAUUQVM-237">
          <mxGeometry relative="1" as="geometry" />
        </mxCell>
        <mxCell id="bSU5-OepussvrXAUUQVM-264" style="edgeStyle=orthogonalEdgeStyle;rounded=0;orthogonalLoop=1;jettySize=auto;html=1;exitX=1;exitY=0.5;exitDx=0;exitDy=0;entryX=0;entryY=0.5;entryDx=0;entryDy=0;" edge="1" parent="1" source="bSU5-OepussvrXAUUQVM-241" target="bSU5-OepussvrXAUUQVM-258">
          <mxGeometry relative="1" as="geometry">
            <mxPoint x="890" y="4530" as="targetPoint" />
          </mxGeometry>
        </mxCell>
        <mxCell id="bSU5-OepussvrXAUUQVM-241" value="Rule 2" style="rounded=0;whiteSpace=wrap;html=1;" vertex="1" parent="1">
          <mxGeometry x="660" y="4520" width="90" height="30" as="geometry" />
        </mxCell>
        <mxCell id="bSU5-OepussvrXAUUQVM-268" style="edgeStyle=orthogonalEdgeStyle;rounded=0;orthogonalLoop=1;jettySize=auto;html=1;exitX=1;exitY=0.5;exitDx=0;exitDy=0;entryX=0;entryY=0.5;entryDx=0;entryDy=0;" edge="1" parent="1" source="bSU5-OepussvrXAUUQVM-242" target="bSU5-OepussvrXAUUQVM-258">
          <mxGeometry relative="1" as="geometry" />
        </mxCell>
        <mxCell id="bSU5-OepussvrXAUUQVM-242" value="Rule n" style="rounded=0;whiteSpace=wrap;html=1;" vertex="1" parent="1">
          <mxGeometry x="660" y="4750" width="90" height="30" as="geometry" />
        </mxCell>
        <mxCell id="bSU5-OepussvrXAUUQVM-243" style="edgeStyle=orthogonalEdgeStyle;rounded=0;orthogonalLoop=1;jettySize=auto;html=1;exitX=0.5;exitY=1;exitDx=0;exitDy=0;entryX=0.5;entryY=0;entryDx=0;entryDy=0;dashed=1;endArrow=none;endFill=0;" edge="1" parent="1" source="bSU5-OepussvrXAUUQVM-244" target="bSU5-OepussvrXAUUQVM-246">
          <mxGeometry relative="1" as="geometry" />
        </mxCell>
        <mxCell id="bSU5-OepussvrXAUUQVM-266" style="edgeStyle=orthogonalEdgeStyle;rounded=0;orthogonalLoop=1;jettySize=auto;html=1;exitX=1;exitY=0.5;exitDx=0;exitDy=0;entryX=0;entryY=0.5;entryDx=0;entryDy=0;" edge="1" parent="1" source="bSU5-OepussvrXAUUQVM-244" target="bSU5-OepussvrXAUUQVM-258">
          <mxGeometry relative="1" as="geometry" />
        </mxCell>
        <mxCell id="bSU5-OepussvrXAUUQVM-244" value="Rule 1" style="rounded=0;whiteSpace=wrap;html=1;" vertex="1" parent="1">
          <mxGeometry x="660" y="4640" width="90" height="30" as="geometry" />
        </mxCell>
        <mxCell id="bSU5-OepussvrXAUUQVM-245" style="edgeStyle=orthogonalEdgeStyle;rounded=0;orthogonalLoop=1;jettySize=auto;html=1;exitX=0.5;exitY=1;exitDx=0;exitDy=0;entryX=0.5;entryY=0;entryDx=0;entryDy=0;dashed=1;endArrow=none;endFill=0;" edge="1" parent="1" source="bSU5-OepussvrXAUUQVM-246" target="bSU5-OepussvrXAUUQVM-242">
          <mxGeometry relative="1" as="geometry" />
        </mxCell>
        <mxCell id="bSU5-OepussvrXAUUQVM-267" style="edgeStyle=orthogonalEdgeStyle;rounded=0;orthogonalLoop=1;jettySize=auto;html=1;exitX=1;exitY=0.5;exitDx=0;exitDy=0;entryX=0;entryY=0.5;entryDx=0;entryDy=0;" edge="1" parent="1" source="bSU5-OepussvrXAUUQVM-246" target="bSU5-OepussvrXAUUQVM-258">
          <mxGeometry relative="1" as="geometry" />
        </mxCell>
        <mxCell id="bSU5-OepussvrXAUUQVM-246" value="Rule 2" style="rounded=0;whiteSpace=wrap;html=1;" vertex="1" parent="1">
          <mxGeometry x="660" y="4690" width="90" height="30" as="geometry" />
        </mxCell>
        <mxCell id="bSU5-OepussvrXAUUQVM-258" value="All Pass?" style="rounded=0;whiteSpace=wrap;html=1;" vertex="1" parent="1">
          <mxGeometry x="890" y="4505" width="120" height="60" as="geometry" />
        </mxCell>
        <mxCell id="bSU5-OepussvrXAUUQVM-269" value="Rule" style="rounded=0;whiteSpace=wrap;html=1;" vertex="1" parent="1">
          <mxGeometry x="330" y="4945" width="90" height="30" as="geometry" />
        </mxCell>
        <mxCell id="bSU5-OepussvrXAUUQVM-270" value="Expression 1" style="rounded=0;whiteSpace=wrap;html=1;" vertex="1" parent="1">
          <mxGeometry x="450" y="4890" width="90" height="30" as="geometry" />
        </mxCell>
        <mxCell id="bSU5-OepussvrXAUUQVM-271" value="Operator" style="rounded=0;whiteSpace=wrap;html=1;" vertex="1" parent="1">
          <mxGeometry x="450" y="4945" width="90" height="30" as="geometry" />
        </mxCell>
        <mxCell id="bSU5-OepussvrXAUUQVM-272" value="Expression 2" style="rounded=0;whiteSpace=wrap;html=1;" vertex="1" parent="1">
          <mxGeometry x="449.75" y="5005" width="90" height="30" as="geometry" />
        </mxCell>
        <mxCell id="bSU5-OepussvrXAUUQVM-273" value="+" style="text;html=1;align=center;verticalAlign=middle;resizable=0;points=[];autosize=1;strokeColor=none;fillColor=none;" vertex="1" parent="1">
          <mxGeometry x="479.75" y="4975" width="30" height="30" as="geometry" />
        </mxCell>
        <mxCell id="bSU5-OepussvrXAUUQVM-274" value="+" style="text;html=1;align=center;verticalAlign=middle;resizable=0;points=[];autosize=1;strokeColor=none;fillColor=none;" vertex="1" parent="1">
          <mxGeometry x="480" y="4915" width="30" height="30" as="geometry" />
        </mxCell>
        <mxCell id="bSU5-OepussvrXAUUQVM-275" value="=" style="text;html=1;align=center;verticalAlign=middle;resizable=0;points=[];autosize=1;strokeColor=none;fillColor=none;" vertex="1" parent="1">
          <mxGeometry x="419.75" y="4945" width="30" height="30" as="geometry" />
        </mxCell>
      </root>
    </mxGraphModel>
  </diagram>
</mxfile>
